<svg xmlns="http://www.w3.org/2000/svg" xmlns:xlink="http://www.w3.org/1999/xlink" version="1.1" width="20pt" height="20pt" viewBox="0 0 20 20">
<defs>
<clipPath id="clip_0">
<path transform="matrix(1,0,0,-1,0,20)" d="M0 20H20V0H0Z"/>
</clipPath>
</defs>
<g id="layer_1" data-name="Layer 1">
<g clip-path="url(#clip_0)">
<path transform="matrix(1,0,0,-1,9.2312,16.9605)" d="M0 0C0-1.026 1.538-1.026 1.538 0V8.839L4.568 5.628C5.274 4.911 6.364 5.943 5.691 6.686L1.33 11.303C1.026 11.624 .512 11.624 .208 11.303L-4.153 6.686C-4.452 6.376-4.446 5.884-4.132 5.586-3.817 5.292-3.324 5.307-3.03 5.628L0 8.839Z" fill="#ffffff"/>
<path transform="matrix(1,0,0,-1,3.382,3.465599)" d="M0 0H13.236C13.661 0 14.005 .345 14.005 .77 14.005 1.195 13.661 1.539 13.236 1.539H0C-.425 1.539-.77 1.195-.77 .77-.77 .345-.425 0 0 0" fill="#ffffff"/>
</g>
</g>
</svg>
