<svg xmlns="http://www.w3.org/2000/svg" xmlns:xlink="http://www.w3.org/1999/xlink" version="1.1" width="20pt" height="20pt" viewBox="0 0 20 20">
<g id="layer_1">
<path transform="matrix(1,0,0,-1,10.5453,3.3176003)" d="M0 0-4.926-.315-9.063-15.877-4.846-16.19-3.453-10.751-2.214-10.604-3.115-14.033-1.21-10.483 1.327-10.18 7.43 .475 1.107 .071 1.781 2.825ZM.93-.654 6.154-.32 .886-9.516-.798-9.717 2.393-3.773 .112-3.996ZM-8.154-15.23-4.369-.993-.469-.743-4.138-6.566-1.09-6.322-2.02-9.863-4.022-10.103-5.388-15.436Z" fill="#ffffff"/>
</g>
</svg>
